<svg width="1920" height="1080" viewBox="0 0 1920 1080" fill="none" xmlns="http://www.w3.org/2000/svg">
<g clip-path="url(#clip0_188_23)">
<path fill-rule="evenodd" clip-rule="evenodd" d="M-0.655273 612.577H-0.564941H1919.3H1919.4L1919.48 612.597L4474.97 1187.44L4479.25 1188.4H4474.79H-2556.06H-2560.52L-2556.24 1187.44L-0.741943 612.597L-0.655273 612.577ZM-1534.53 958.637L-1954.07 1053.01H-1509.74L-1154.74 958.637H-1534.53ZM-1150.83 958.637L-1505.83 1053.01H-1060.85L-770.394 958.637H-1150.83ZM-1513.44 1053.99H-1958.44L-2551.61 1187.42H-2015.34L-1513.44 1053.99ZM-2011.43 1187.42L-1509.52 1053.99H-1063.87L-1474.53 1187.42H-2011.43ZM-1147.13 957.653L-883.138 887.473H-551.377L-767.367 957.653H-1147.13ZM-887.051 887.473L-1151.04 957.653H-1530.15L-1218.16 887.473H-887.051ZM-879.438 886.489H-548.35L-381.664 832.33H-675.712L-879.438 886.489ZM-679.623 832.33L-883.35 886.489H-1213.79L-973.023 832.33H-679.623ZM-672.012 831.346H-378.637L-246.294 788.346H-510.26L-672.012 831.346ZM-514.171 788.346L-675.924 831.346H-968.651L-777.489 788.346H-514.171ZM-506.559 787.362H-243.267L-135.802 752.445H-375.213L-506.559 787.362ZM-379.125 752.445L-510.471 787.362H-773.115L-617.889 752.445H-379.125ZM-371.514 751.462H-132.775L-43.9077 722.587H-262.898L-371.514 751.462ZM-266.811 722.587L-375.425 751.462H-613.517L-485.152 722.587H-266.811ZM-259.198 721.603H-40.8804L33.7197 697.364H-168.02L-259.198 721.603ZM-171.932 697.364L-263.11 721.603H-480.78L-373.024 697.364H-171.932ZM-164.32 696.381H36.7471L100.161 675.776H-86.8145L-164.32 696.381ZM-90.7263 675.776L-168.232 696.381H-368.651L-277.053 675.776H-90.7263ZM-83.1145 674.792H103.188L157.677 657.088H-16.5164L-83.1145 674.792ZM-20.4282 657.088L-87.0264 674.792H-272.681L-193.974 657.088H-20.4282ZM-12.8164 656.104H160.704L207.956 640.751H44.9355L-12.8164 656.104ZM41.0237 640.751L-16.7283 656.104H-189.602L-121.349 640.751H41.0237ZM48.6355 639.767H210.984L252.268 626.353H99.094L48.6355 639.767ZM95.1824 626.353L44.7234 639.767H-116.976L-57.3428 626.353H95.1824ZM102.794 625.369H255.295L291.637 613.561H147.214L102.794 625.369ZM143.302 613.561L98.8826 625.369H-52.9702L-0.474609 613.561H143.302ZM-1060.59 1053.99L-1471.24 1187.42H-933.717L-614.322 1053.99H-1060.59ZM-767.111 958.637L-1057.56 1053.01H-611.967L-386.06 958.637H-767.111ZM-383.706 957.653H-764.084L-548.094 887.473H-215.714L-383.706 957.653ZM-213.359 886.489H-545.067L-378.381 832.33H-83.7151L-213.359 886.489ZM-81.3606 831.346H-375.354L-243.011 788.346H21.573L-81.3606 831.346ZM23.9272 787.362H-239.984L-132.52 752.445H107.51L23.9272 787.362ZM109.865 751.462H-129.492L-40.625 722.587H178.984L109.865 751.462ZM181.338 721.603H-37.5979L37.0024 697.364H239.361L181.338 721.603ZM241.715 696.381H40.0295L103.443 675.776H291.037L241.715 696.381ZM293.391 674.792H106.47L160.959 657.088H335.772L293.391 674.792ZM338.126 656.104H163.987L211.239 640.751H374.878L338.126 656.104ZM377.232 639.767H214.266L255.55 626.353H409.343L377.232 639.767ZM411.697 625.369H258.577L294.92 613.561H439.964L411.697 625.369ZM-383.386 958.637L-609.292 1053.01H-163.118L-1.75464 958.637H-383.386ZM-931.042 1187.42L-611.646 1053.99H-164.801L-392.943 1187.42H-931.042ZM-381.03 957.653L-213.039 887.473H119.923L-0.0727539 957.653H-381.03ZM-210.684 886.489H121.605L214.209 832.33H-81.04L-210.684 886.489ZM-78.6855 831.346H215.89L289.415 788.346H24.2478L-78.6855 831.346ZM26.6023 787.362H291.096L350.8 752.445H110.186L26.6023 787.362ZM112.54 751.462H352.482L401.854 722.587H181.659L112.54 751.462ZM184.013 721.603H403.535L444.98 697.364H242.037L184.013 721.603ZM244.39 696.381H446.661L481.891 675.776H293.712L244.39 696.381ZM296.067 674.792H483.574L513.846 657.088H338.448L296.067 674.792ZM340.802 656.104H515.527L541.779 640.751H377.552L340.802 656.104ZM379.908 639.767H543.461L566.397 626.353H412.017L379.908 639.767ZM414.373 625.369H568.078L588.269 613.561H442.639L414.373 625.369ZM-162.693 1053.99L-390.835 1187.42H147.804L284.69 1053.99H-162.693ZM0.352783 958.637L-161.011 1053.01H285.7L382.518 958.637H0.352783ZM383.527 957.653H2.03442L122.031 887.473H455.524L383.527 957.653ZM456.534 886.489H123.712L216.316 832.33H512.096L456.534 886.489ZM513.105 831.346H217.998L291.522 788.346H557.221L513.105 831.346ZM558.229 787.362H293.205L352.907 752.445H594.052L558.229 787.362ZM595.061 751.462H354.589L403.96 722.587H624.684L595.061 751.462ZM625.692 721.603H405.643L447.088 697.364H650.56L625.692 721.603ZM651.569 696.381H448.769L484 675.776H672.707L651.569 696.381ZM673.716 674.792H485.681L515.953 657.088H691.879L673.716 674.792ZM692.888 656.104H517.635L543.886 640.751H708.64L692.888 656.104ZM709.649 639.767H545.568L568.503 626.353H723.41L709.649 639.767ZM724.419 625.369H570.186L590.377 613.561H736.534L724.419 625.369ZM384.139 958.637L287.321 1053.01H734.425L766.697 958.637H384.139ZM149.427 1187.42L286.312 1053.99H734.088L688.462 1187.42H149.427ZM385.149 957.653L457.146 887.473H791.032L767.033 957.653H385.149ZM458.156 886.489H791.367L809.888 832.33H513.718L458.156 886.489ZM514.727 831.346H810.224L824.928 788.346H558.843L514.727 831.346ZM559.851 787.362H825.264L837.205 752.445H595.673L559.851 787.362ZM596.683 751.462H837.541L847.415 722.587H626.305L596.683 751.462ZM627.314 721.603H847.751L856.04 697.364H652.181L627.314 721.603ZM653.191 696.381H856.377L863.422 675.776H674.328L653.191 696.381ZM675.338 674.792H863.758L869.813 657.088H693.502L675.338 674.792ZM694.51 656.104H870.149L875.399 640.751H710.261L694.51 656.104ZM711.271 639.767H875.735L880.322 626.353H725.032L711.271 639.767ZM726.041 625.369H880.658L884.697 613.561H738.156L726.041 625.369ZM735.403 1053.99L689.776 1187.42H1228.95L1183.33 1053.99H735.403ZM768.01 958.637L735.739 1053.01H1182.99L1150.72 958.637H768.01ZM1150.38 957.653H768.346L792.345 887.473H1126.38L1150.38 957.653ZM1126.05 886.489H792.681L811.201 832.33H1107.53L1126.05 886.489ZM1107.19 831.346H811.537L826.242 788.346H1092.49L1107.19 831.346ZM1092.15 787.362H826.579L838.518 752.445H1080.21L1092.15 787.362ZM1079.87 751.462H838.854L848.729 722.587H1070L1079.87 751.462ZM1069.66 721.603H849.065L857.353 697.364H1061.37L1069.66 721.603ZM1061.04 696.381H857.69L864.736 675.776H1053.99L1061.04 696.381ZM1053.66 674.792H865.073L871.126 657.088H1047.6L1053.66 674.792ZM1047.27 656.104H871.462L876.713 640.751H1042.02L1047.27 656.104ZM1041.68 639.767H877.05L881.636 626.353H1037.09L1041.68 639.767ZM1036.76 625.369H881.971L886.01 613.561H1032.72L1036.76 625.369ZM1152.03 958.637L1184.3 1053.01H1631.42L1534.59 958.637H1152.03ZM1230.27 1187.42L1184.64 1053.99H1632.42L1769.31 1187.42H1230.27ZM1151.7 957.653L1127.7 887.473H1461.59L1533.59 957.653H1151.7ZM1127.36 886.489H1460.58L1405.02 832.33H1108.84L1127.36 886.489ZM1108.5 831.346H1404.01L1359.9 788.346H1093.8L1108.5 831.346ZM1093.47 787.362H1358.88L1323.06 752.445H1081.52L1093.47 787.362ZM1081.19 751.462H1322.06L1292.43 722.587H1071.31L1081.19 751.462ZM1070.98 721.603H1291.43L1266.56 697.364H1062.69L1070.98 721.603ZM1062.35 696.381H1265.55L1244.41 675.776H1055.31L1062.35 696.381ZM1054.97 674.792H1243.4L1225.24 657.088H1048.92L1054.97 674.792ZM1048.58 656.104H1224.23L1208.48 640.751H1043.33L1048.58 656.104ZM1042.99 639.767H1207.47L1193.71 626.353H1038.41L1042.99 639.767ZM1038.07 625.369H1192.7L1180.59 613.561H1034.03L1038.07 625.369ZM1634.04 1053.99L1770.92 1187.42H2309.56L2081.42 1053.99H1634.04ZM1536.22 958.637L1633.03 1053.01H2079.75L1918.39 958.637H1536.22ZM1916.7 957.653H1535.21L1463.21 887.473H1796.71L1916.7 957.653ZM1795.02 886.489H1462.2L1406.64 832.33H1702.42L1795.02 886.489ZM1700.74 831.346H1405.64L1361.52 788.346H1627.21L1700.74 831.346ZM1625.54 787.362H1360.51L1324.69 752.445H1565.83L1625.54 787.362ZM1564.15 751.462H1323.68L1294.06 722.587H1514.78L1564.15 751.462ZM1513.09 721.603H1293.04L1268.18 697.364H1471.66L1513.09 721.603ZM1469.97 696.381H1267.17L1246.03 675.776H1434.74L1469.97 696.381ZM1433.05 674.792H1245.02L1226.86 657.088H1402.79L1433.05 674.792ZM1401.1 656.104H1225.85L1210.1 640.751H1374.86L1401.1 656.104ZM1373.17 639.767H1209.09L1195.33 626.353H1350.23L1373.17 639.767ZM1348.56 625.369H1194.32L1182.21 613.561H1328.37L1348.56 625.369ZM1920.49 958.637L2081.85 1053.01H2528.02L2302.12 958.637H1920.49ZM2311.67 1187.42L2083.53 1053.99H2530.37L2849.78 1187.42H2311.67ZM1918.81 957.653L1798.82 887.473H2131.77L2299.76 957.653H1918.81ZM1797.13 886.489H2129.41L1999.77 832.33H1704.53L1797.13 886.489ZM1702.84 831.346H1997.41L1894.48 788.346H1629.32L1702.84 831.346ZM1627.64 787.362H1892.13L1808.55 752.445H1567.94L1627.64 787.362ZM1566.26 751.462H1806.18L1737.07 722.587H1516.89L1566.26 751.462ZM1515.2 721.603H1734.72L1676.7 697.364H1473.76L1515.2 721.603ZM1472.08 696.381H1674.34L1625.02 675.776H1436.85L1472.08 696.381ZM1435.16 674.792H1622.67L1580.28 657.088H1404.89L1435.16 674.792ZM1403.21 656.104H1577.93L1541.18 640.751H1376.96L1403.21 656.104ZM1375.28 639.767H1538.82L1506.72 626.353H1352.34L1375.28 639.767ZM1350.67 625.369H1504.35L1476.09 613.561H1330.48L1350.67 625.369ZM2533.05 1053.99L2852.44 1187.42H3389.97L2979.31 1053.99H2533.05ZM2304.79 958.637L2530.69 1053.01H2976.29L2685.84 958.637H2304.79ZM2682.82 957.653H2302.44L2134.44 887.473H2466.82L2682.82 957.653ZM2463.8 886.489H2132.09L2002.45 832.33H2297.12L2463.8 886.489ZM2294.08 831.346H2000.09L1897.15 788.346H2161.74L2294.08 831.346ZM2158.72 787.362H1894.81L1811.22 752.445H2051.25L2158.72 787.362ZM2048.22 751.462H1808.86L1739.75 722.587H1959.35L2048.22 751.462ZM1956.33 721.603H1737.4L1679.36 697.364H1881.73L1956.33 721.603ZM1878.7 696.381H1677.02L1627.69 675.776H1815.29L1878.7 696.381ZM1812.25 674.792H1625.33L1582.96 657.088H1757.76L1812.25 674.792ZM1754.74 656.104H1580.61L1543.85 640.751H1707.49L1754.74 656.104ZM1704.47 639.767H1541.5L1509.38 626.353H1663.17L1704.47 639.767ZM1660.15 625.369H1507.03L1478.77 613.561H1623.81L1660.15 625.369ZM2689.12 958.637L2979.58 1053.01H3424.56L3069.56 958.637H2689.12ZM3393.26 1187.42L2982.6 1053.99H3428.25L3930.16 1187.42H3393.26ZM2686.09 957.653L2470.11 887.473H2801.87L3065.85 957.653H2686.09ZM2467.07 886.489H2798.17L2594.44 832.33H2300.39L2467.07 886.489ZM2297.37 831.346H2590.74L2428.99 788.346H2165.03L2297.37 831.346ZM2161.99 787.362H2425.28L2293.94 752.445H2054.53L2161.99 787.362ZM2051.5 751.462H2290.25L2181.62 722.587H1962.64L2051.5 751.462ZM1959.61 721.603H2177.93L2086.75 697.364H1885.02L1959.61 721.603ZM1881.98 696.381H2083.05L2005.55 675.776H1818.56L1881.98 696.381ZM1815.54 674.792H2001.84L1935.25 657.088H1761.05L1815.54 674.792ZM1758.02 656.104H1931.54L1873.79 640.751H1710.77L1758.02 656.104ZM1707.75 639.767H1870.09L1819.63 626.353H1666.46L1707.75 639.767ZM1663.43 625.369H1815.94L1771.52 613.561H1627.08L1663.43 625.369ZM3432.16 1053.99L3934.07 1187.42H4470.34L3877.17 1053.99H3432.16ZM3073.47 958.637L3428.47 1053.01H3872.8L3453.26 958.637H3073.47ZM3448.89 957.653H3069.76L2805.78 887.473H3136.9L3448.89 957.653ZM3132.53 886.489H2802.08L2598.35 832.33H2891.76L3132.53 886.489ZM2887.39 831.346H2594.65L2432.9 788.346H2696.23L2887.39 831.346ZM2691.86 787.362H2429.21L2297.85 752.445H2536.63L2691.86 787.362ZM2532.25 751.462H2294.16L2185.54 722.587H2403.9L2532.25 751.462ZM2399.52 721.603H2181.84L2090.67 697.364H2291.76L2399.52 721.603ZM2287.39 696.381H2086.96L2009.46 675.776H2195.8L2287.39 696.381ZM2191.42 674.792H2005.75L1939.16 657.088H2112.71L2191.42 674.792ZM2108.34 656.104H1935.45L1877.7 640.751H2040.09L2108.34 656.104ZM2035.72 639.767H1874.01L1823.54 626.353H1976.09L2035.72 639.767ZM1971.71 625.369H1819.85L1775.43 613.561H1919.21L1971.71 625.369Z" fill="url(#paint0_linear_188_23)"/>
<path fill-rule="evenodd" clip-rule="evenodd" d="M-0.655273 441.848H-0.564941H1919.3H1919.4L1919.48 441.829L4474.97 -133.016L4479.25 -133.98H4474.79H-2556.06H-2560.52L-2556.24 -133.016L-0.741943 441.829L-0.655273 441.848ZM-1534.53 95.7895L-1954.07 1.41609H-1509.74L-1154.74 95.7895H-1534.53ZM-1150.83 95.7895L-1505.83 1.41609H-1060.85L-770.394 95.7895H-1150.83ZM-1513.44 0.43248H-1958.44L-2551.61 -132.996H-2015.34L-1513.44 0.43248ZM-2011.43 -132.996L-1509.52 0.43248H-1063.87L-1474.53 -132.996H-2011.43ZM-1147.13 96.7731L-883.138 166.952H-551.377L-767.367 96.7731H-1147.13ZM-887.051 166.952L-1151.04 96.7731H-1530.15L-1218.16 166.952H-887.051ZM-879.438 167.936H-548.35L-381.664 222.095H-675.712L-879.438 167.936ZM-679.623 222.095L-883.35 167.936H-1213.79L-973.023 222.095H-679.623ZM-672.012 223.079H-378.637L-246.294 266.08H-510.26L-672.012 223.079ZM-514.171 266.08L-675.924 223.079H-968.651L-777.489 266.08H-514.171ZM-506.559 267.064H-243.267L-135.802 301.981H-375.213L-506.559 267.064ZM-379.125 301.981L-510.471 267.064H-773.115L-617.889 301.981H-379.125ZM-371.514 302.965H-132.775L-43.9077 331.839H-262.898L-371.514 302.965ZM-266.811 331.839L-375.425 302.965H-613.517L-485.152 331.839H-266.811ZM-259.198 332.823H-40.8804L33.7197 357.062H-168.02L-259.198 332.823ZM-171.932 357.062L-263.11 332.823H-480.78L-373.024 357.062H-171.932ZM-164.32 358.046H36.7471L100.161 378.65H-86.8145L-164.32 358.046ZM-90.7263 378.65L-168.232 358.046H-368.651L-277.053 378.65H-90.7263ZM-83.1145 379.634H103.188L157.677 397.338H-16.5164L-83.1145 379.634ZM-20.4282 397.338L-87.0264 379.634H-272.681L-193.974 397.338H-20.4282ZM-12.8164 398.321H160.704L207.956 413.674H44.9355L-12.8164 398.321ZM41.0237 413.674L-16.7283 398.321H-189.602L-121.349 413.674H41.0237ZM48.6355 414.658H210.984L252.268 428.072H99.094L48.6355 414.658ZM95.1824 428.072L44.7234 414.658H-116.976L-57.3428 428.072H95.1824ZM102.794 429.056H255.295L291.637 440.864H147.214L102.794 429.056ZM143.302 440.864L98.8826 429.056H-52.9702L-0.474609 440.864H143.302ZM-1060.59 0.43248L-1471.24 -132.996H-933.717L-614.322 0.43248H-1060.59ZM-767.111 95.7895L-1057.56 1.41609H-611.967L-386.06 95.7895H-767.111ZM-383.706 96.7731H-764.084L-548.094 166.952H-215.714L-383.706 96.7731ZM-213.359 167.936H-545.067L-378.381 222.095H-83.7151L-213.359 167.936ZM-81.3606 223.079H-375.354L-243.011 266.08H21.573L-81.3606 223.079ZM23.9272 267.064H-239.984L-132.52 301.981H107.51L23.9272 267.064ZM109.865 302.965H-129.492L-40.625 331.839H178.984L109.865 302.965ZM181.338 332.823H-37.5979L37.0024 357.062H239.361L181.338 332.823ZM241.715 358.046H40.0295L103.443 378.65H291.037L241.715 358.046ZM293.391 379.634H106.47L160.959 397.338H335.772L293.391 379.634ZM338.126 398.321H163.987L211.239 413.674H374.878L338.126 398.321ZM377.232 414.658H214.266L255.55 428.072H409.343L377.232 414.658ZM411.697 429.056H258.577L294.92 440.864H439.964L411.697 429.056ZM-383.386 95.7895L-609.292 1.41609H-163.118L-1.75464 95.7895H-383.386ZM-931.042 -132.996L-611.646 0.43248H-164.801L-392.943 -132.996H-931.042ZM-381.03 96.7731L-213.039 166.952H119.923L-0.0727539 96.7731H-381.03ZM-210.684 167.936H121.605L214.209 222.095H-81.04L-210.684 167.936ZM-78.6855 223.079H215.89L289.415 266.08H24.2478L-78.6855 223.079ZM26.6023 267.064H291.096L350.8 301.981H110.186L26.6023 267.064ZM112.54 302.965H352.482L401.854 331.839H181.659L112.54 302.965ZM184.013 332.823H403.535L444.98 357.062H242.037L184.013 332.823ZM244.39 358.046H446.661L481.891 378.65H293.712L244.39 358.046ZM296.067 379.634H483.574L513.846 397.338H338.448L296.067 379.634ZM340.802 398.321H515.527L541.779 413.674H377.552L340.802 398.321ZM379.908 414.658H543.461L566.397 428.072H412.017L379.908 414.658ZM414.373 429.056H568.078L588.269 440.864H442.639L414.373 429.056ZM-162.693 0.43248L-390.835 -132.996H147.804L284.69 0.43248H-162.693ZM0.352783 95.7895L-161.011 1.41609H285.7L382.518 95.7895H0.352783ZM383.527 96.7731H2.03442L122.031 166.952H455.524L383.527 96.7731ZM456.534 167.936H123.712L216.316 222.095H512.096L456.534 167.936ZM513.105 223.079H217.998L291.522 266.08H557.221L513.105 223.079ZM558.229 267.064H293.205L352.907 301.981H594.052L558.229 267.064ZM595.061 302.965H354.589L403.96 331.839H624.684L595.061 302.965ZM625.692 332.823H405.643L447.088 357.062H650.56L625.692 332.823ZM651.569 358.046H448.769L484 378.65H672.707L651.569 358.046ZM673.716 379.634H485.681L515.953 397.338H691.879L673.716 379.634ZM692.888 398.321H517.635L543.886 413.674H708.64L692.888 398.321ZM709.649 414.658H545.568L568.503 428.072H723.41L709.649 414.658ZM724.419 429.056H570.186L590.377 440.864H736.534L724.419 429.056ZM384.139 95.7895L287.321 1.41609H734.425L766.697 95.7895H384.139ZM149.427 -132.996L286.312 0.43248H734.088L688.462 -132.996H149.427ZM385.149 96.7731L457.146 166.952H791.032L767.033 96.7731H385.149ZM458.156 167.936H791.367L809.888 222.095H513.718L458.156 167.936ZM514.727 223.079H810.224L824.928 266.08H558.843L514.727 223.079ZM559.851 267.064H825.264L837.205 301.981H595.673L559.851 267.064ZM596.683 302.965H837.541L847.415 331.839H626.305L596.683 302.965ZM627.314 332.823H847.751L856.04 357.062H652.181L627.314 332.823ZM653.191 358.046H856.377L863.422 378.65H674.328L653.191 358.046ZM675.338 379.634H863.758L869.813 397.338H693.502L675.338 379.634ZM694.51 398.321H870.149L875.399 413.674H710.261L694.51 398.321ZM711.271 414.658H875.735L880.322 428.072H725.032L711.271 414.658ZM726.041 429.056H880.658L884.697 440.864H738.156L726.041 429.056ZM735.403 0.43248L689.776 -132.996H1228.95L1183.33 0.43248H735.403ZM768.01 95.7895L735.739 1.41609H1182.99L1150.72 95.7895H768.01ZM1150.38 96.7731H768.346L792.345 166.952H1126.38L1150.38 96.7731ZM1126.05 167.936H792.681L811.201 222.095H1107.53L1126.05 167.936ZM1107.19 223.079H811.537L826.242 266.08H1092.49L1107.19 223.079ZM1092.15 267.064H826.579L838.518 301.981H1080.21L1092.15 267.064ZM1079.87 302.965H838.854L848.729 331.839H1070L1079.87 302.965ZM1069.66 332.823H849.065L857.353 357.062H1061.37L1069.66 332.823ZM1061.04 358.046H857.69L864.736 378.65H1053.99L1061.04 358.046ZM1053.66 379.634H865.073L871.126 397.338H1047.6L1053.66 379.634ZM1047.27 398.321H871.462L876.713 413.674H1042.02L1047.27 398.321ZM1041.68 414.658H877.05L881.636 428.072H1037.09L1041.68 414.658ZM1036.76 429.056H881.971L886.01 440.864H1032.72L1036.76 429.056ZM1152.03 95.7895L1184.3 1.41609H1631.42L1534.59 95.7895H1152.03ZM1230.27 -132.996L1184.64 0.43248H1632.42L1769.31 -132.996H1230.27ZM1151.7 96.7731L1127.7 166.952H1461.59L1533.59 96.7731H1151.7ZM1127.36 167.936H1460.58L1405.02 222.095H1108.84L1127.36 167.936ZM1108.5 223.079H1404.01L1359.9 266.08H1093.8L1108.5 223.079ZM1093.47 267.064H1358.88L1323.06 301.981H1081.52L1093.47 267.064ZM1081.19 302.965H1322.06L1292.43 331.839H1071.31L1081.19 302.965ZM1070.98 332.823H1291.43L1266.56 357.062H1062.69L1070.98 332.823ZM1062.35 358.046H1265.55L1244.41 378.65H1055.31L1062.35 358.046ZM1054.97 379.634H1243.4L1225.24 397.338H1048.92L1054.97 379.634ZM1048.58 398.321H1224.23L1208.48 413.674H1043.33L1048.58 398.321ZM1042.99 414.658H1207.47L1193.71 428.072H1038.41L1042.99 414.658ZM1038.07 429.056H1192.7L1180.59 440.864H1034.03L1038.07 429.056ZM1634.04 0.43248L1770.92 -132.996H2309.56L2081.42 0.43248H1634.04ZM1536.22 95.7895L1633.03 1.41609H2079.75L1918.39 95.7895H1536.22ZM1916.7 96.7731H1535.21L1463.21 166.952H1796.71L1916.7 96.7731ZM1795.02 167.936H1462.2L1406.64 222.095H1702.42L1795.02 167.936ZM1700.74 223.079H1405.64L1361.52 266.08H1627.21L1700.74 223.079ZM1625.54 267.064H1360.51L1324.69 301.981H1565.83L1625.54 267.064ZM1564.15 302.965H1323.68L1294.06 331.839H1514.78L1564.15 302.965ZM1513.09 332.823H1293.04L1268.18 357.062H1471.66L1513.09 332.823ZM1469.97 358.046H1267.17L1246.03 378.65H1434.74L1469.97 358.046ZM1433.05 379.634H1245.02L1226.86 397.338H1402.79L1433.05 379.634ZM1401.1 398.321H1225.85L1210.1 413.674H1374.86L1401.1 398.321ZM1373.17 414.658H1209.09L1195.33 428.072H1350.23L1373.17 414.658ZM1348.56 429.056H1194.32L1182.21 440.864H1328.37L1348.56 429.056ZM1920.49 95.7895L2081.85 1.41609H2528.02L2302.12 95.7895H1920.49ZM2311.67 -132.996L2083.53 0.43248H2530.37L2849.78 -132.996H2311.67ZM1918.81 96.7731L1798.82 166.952H2131.77L2299.76 96.7731H1918.81ZM1797.13 167.936H2129.41L1999.77 222.095H1704.53L1797.13 167.936ZM1702.84 223.079H1997.41L1894.48 266.08H1629.32L1702.84 223.079ZM1627.64 267.064H1892.13L1808.55 301.981H1567.94L1627.64 267.064ZM1566.26 302.965H1806.18L1737.07 331.839H1516.89L1566.26 302.965ZM1515.2 332.823H1734.72L1676.7 357.062H1473.76L1515.2 332.823ZM1472.08 358.046H1674.34L1625.02 378.65H1436.85L1472.08 358.046ZM1435.16 379.634H1622.67L1580.28 397.338H1404.89L1435.16 379.634ZM1403.21 398.321H1577.93L1541.18 413.674H1376.96L1403.21 398.321ZM1375.28 414.658H1538.82L1506.72 428.072H1352.34L1375.28 414.658ZM1350.67 429.056H1504.35L1476.09 440.864H1330.48L1350.67 429.056ZM2533.05 0.43248L2852.44 -132.996H3389.97L2979.31 0.43248H2533.05ZM2304.79 95.7895L2530.69 1.41609H2976.29L2685.84 95.7895H2304.79ZM2682.82 96.7731H2302.44L2134.44 166.952H2466.82L2682.82 96.7731ZM2463.8 167.936H2132.09L2002.45 222.095H2297.12L2463.8 167.936ZM2294.08 223.079H2000.09L1897.15 266.08H2161.74L2294.08 223.079ZM2158.72 267.064H1894.81L1811.22 301.981H2051.25L2158.72 267.064ZM2048.22 302.965H1808.86L1739.75 331.839H1959.35L2048.22 302.965ZM1956.33 332.823H1737.4L1679.36 357.062H1881.73L1956.33 332.823ZM1878.7 358.046H1677.02L1627.69 378.65H1815.29L1878.7 358.046ZM1812.25 379.634H1625.33L1582.96 397.338H1757.76L1812.25 379.634ZM1754.74 398.321H1580.61L1543.85 413.674H1707.49L1754.74 398.321ZM1704.47 414.658H1541.5L1509.38 428.072H1663.17L1704.47 414.658ZM1660.15 429.056H1507.03L1478.77 440.864H1623.81L1660.15 429.056ZM2689.12 95.7895L2979.58 1.41609H3424.56L3069.56 95.7895H2689.12ZM3393.26 -132.996L2982.6 0.43248H3428.25L3930.16 -132.996H3393.26ZM2686.09 96.7731L2470.11 166.952H2801.87L3065.85 96.7731H2686.09ZM2467.07 167.936H2798.17L2594.44 222.095H2300.39L2467.07 167.936ZM2297.37 223.079H2590.74L2428.99 266.08H2165.03L2297.37 223.079ZM2161.99 267.064H2425.28L2293.94 301.981H2054.53L2161.99 267.064ZM2051.5 302.965H2290.25L2181.62 331.839H1962.64L2051.5 302.965ZM1959.61 332.823H2177.93L2086.75 357.062H1885.02L1959.61 332.823ZM1881.98 358.046H2083.05L2005.55 378.65H1818.56L1881.98 358.046ZM1815.54 379.634H2001.84L1935.25 397.338H1761.05L1815.54 379.634ZM1758.02 398.321H1931.54L1873.79 413.674H1710.77L1758.02 398.321ZM1707.75 414.658H1870.09L1819.63 428.072H1666.46L1707.75 414.658ZM1663.43 429.056H1815.94L1771.52 440.864H1627.08L1663.43 429.056ZM3432.16 0.43248L3934.07 -132.996H4470.34L3877.17 0.43248H3432.16ZM3073.47 95.7895L3428.47 1.41609H3872.8L3453.26 95.7895H3073.47ZM3448.89 96.7731H3069.76L2805.78 166.952H3136.9L3448.89 96.7731ZM3132.53 167.936H2802.08L2598.35 222.095H2891.76L3132.53 167.936ZM2887.39 223.079H2594.65L2432.9 266.08H2696.23L2887.39 223.079ZM2691.86 267.064H2429.21L2297.85 301.981H2536.63L2691.86 267.064ZM2532.25 302.965H2294.16L2185.54 331.839H2403.9L2532.25 302.965ZM2399.52 332.823H2181.84L2090.67 357.062H2291.76L2399.52 332.823ZM2287.39 358.046H2086.96L2009.46 378.65H2195.8L2287.39 358.046ZM2191.42 379.634H2005.75L1939.16 397.338H2112.71L2191.42 379.634ZM2108.34 398.321H1935.45L1877.7 413.674H2040.09L2108.34 398.321ZM2035.72 414.658H1874.01L1823.54 428.072H1976.09L2035.72 414.658ZM1971.71 429.056H1819.85L1775.43 440.864H1919.21L1971.71 429.056Z" fill="url(#paint1_linear_188_23)"/>
</g>
<defs>
<linearGradient id="paint0_linear_188_23" x1="959.365" y1="612.577" x2="959.365" y2="918.197" gradientUnits="userSpaceOnUse">
<stop stop-color="#FF5129" stop-opacity="0"/>
<stop offset="1" stop-color="#FF5129"/>
</linearGradient>
<linearGradient id="paint1_linear_188_23" x1="959.365" y1="441.848" x2="959.365" y2="1.47538" gradientUnits="userSpaceOnUse">
<stop stop-color="#FF5129" stop-opacity="0"/>
<stop offset="0.36004" stop-color="#FF5129" stop-opacity="0.8"/>
<stop offset="1" stop-color="#FF5129" stop-opacity="0"/>
</linearGradient>
<clipPath id="clip0_188_23">
<rect width="1920" height="1080" fill="white"/>
</clipPath>
</defs>
</svg>
